<svg xmlns="http://www.w3.org/2000/svg" width="36" height="31.5" viewBox="0 0 36 31.5">
  <path id="Icon_awesome-server" data-name="Icon awesome-server" d="M33.75,11.25H2.25A2.25,2.25,0,0,1,0,9V4.5A2.25,2.25,0,0,1,2.25,2.25h31.5A2.25,2.25,0,0,1,36,4.5V9A2.25,2.25,0,0,1,33.75,11.25ZM30.375,5.063A1.688,1.688,0,1,0,32.063,6.75,1.687,1.687,0,0,0,30.375,5.063Zm-4.5,0A1.688,1.688,0,1,0,27.563,6.75,1.687,1.687,0,0,0,25.875,5.063ZM33.75,22.5H2.25A2.25,2.25,0,0,1,0,20.25v-4.5A2.25,2.25,0,0,1,2.25,13.5h31.5A2.25,2.25,0,0,1,36,15.75v4.5A2.25,2.25,0,0,1,33.75,22.5Zm-3.375-6.187A1.688,1.688,0,1,0,32.063,18,1.687,1.687,0,0,0,30.375,16.313Zm-4.5,0A1.688,1.688,0,1,0,27.563,18,1.687,1.687,0,0,0,25.875,16.313ZM33.75,33.75H2.25A2.25,2.25,0,0,1,0,31.5V27a2.25,2.25,0,0,1,2.25-2.25h31.5A2.25,2.25,0,0,1,36,27v4.5A2.25,2.25,0,0,1,33.75,33.75Zm-3.375-6.187a1.688,1.688,0,1,0,1.688,1.688A1.687,1.687,0,0,0,30.375,27.563Zm-4.5,0a1.688,1.688,0,1,0,1.688,1.688A1.687,1.687,0,0,0,25.875,27.563Z" transform="translate(0 -2.25)" fill="#fff"/>
</svg>
