<svg xmlns="http://www.w3.org/2000/svg" width="32.504" height="26" viewBox="0 0 32.504 26">
  <path id="Icon_awesome-tshirt" data-name="Icon awesome-tshirt" d="M32.052,4.9,22.165,0c-1.021,1.412-3.28,2.4-5.916,2.4s-4.9-.985-5.916-2.4L.446,4.9A.819.819,0,0,0,.08,5.992l2.9,5.814a.819.819,0,0,0,1.092.366l2.874-1.407a.811.811,0,0,1,1.168.731V24.375A1.623,1.623,0,0,0,9.744,26h13a1.623,1.623,0,0,0,1.625-1.625V11.492a.813.813,0,0,1,1.168-.731l2.874,1.407A.81.81,0,0,0,29.5,11.8l2.91-5.809A.811.811,0,0,0,32.052,4.9Z" transform="translate(0.004)" fill="#fff"/>
</svg>
