<svg xmlns="http://www.w3.org/2000/svg" width="22.75" height="26" viewBox="0 0 22.75 26">
  <path id="Icon_awesome-calculator" data-name="Icon awesome-calculator" d="M20.313,0H2.438A2.5,2.5,0,0,0,0,2.438V23.563A2.5,2.5,0,0,0,2.438,26H20.313a2.5,2.5,0,0,0,2.438-2.437V2.438A2.5,2.5,0,0,0,20.313,0ZM6.5,22.1a.7.7,0,0,1-.65.65H3.9a.7.7,0,0,1-.65-.65V20.15a.7.7,0,0,1,.65-.65H5.85a.7.7,0,0,1,.65.65Zm0-6.5a.7.7,0,0,1-.65.65H3.9a.7.7,0,0,1-.65-.65V13.65A.7.7,0,0,1,3.9,13H5.85a.7.7,0,0,1,.65.65ZM13,22.1a.7.7,0,0,1-.65.65H10.4a.7.7,0,0,1-.65-.65V20.15a.7.7,0,0,1,.65-.65h1.95a.7.7,0,0,1,.65.65Zm0-6.5a.7.7,0,0,1-.65.65H10.4a.7.7,0,0,1-.65-.65V13.65A.7.7,0,0,1,10.4,13h1.95a.7.7,0,0,1,.65.65Zm6.5,6.5a.7.7,0,0,1-.65.65H16.9a.7.7,0,0,1-.65-.65V13.65A.7.7,0,0,1,16.9,13h1.95a.7.7,0,0,1,.65.65V22.1Zm0-13a.7.7,0,0,1-.65.65H3.9a.7.7,0,0,1-.65-.65V3.9a.7.7,0,0,1,.65-.65H18.85a.7.7,0,0,1,.65.65Z" fill="#fff"/>
</svg>
